<?xml version="1.0" standalone="no"?><!-- Generator: Gravit.io --><svg xmlns="http://www.w3.org/2000/svg" xmlns:xlink="http://www.w3.org/1999/xlink" style="isolation:isolate" viewBox="0 0 162 53.352" width="162" height="53.352"><defs><clipPath id="_clipPath_QegUub5YlOFqy2Klu51Edo8wV3f2fb4b"><rect width="162" height="53.352"/></clipPath></defs><g clip-path="url(#_clipPath_QegUub5YlOFqy2Klu51Edo8wV3f2fb4b)"><path d=" M 0.728 42.948 L 6.92 13.788 L 10.844 13.788 L 17.072 42.948 L 13.22 42.948 L 11.888 35.604 L 5.948 35.604 L 4.544 42.948 L 0.728 42.948 L 0.728 42.948 Z  M 6.488 32.688 L 11.348 32.688 L 8.9 19.548 L 6.488 32.688 L 6.488 32.688 Z  M 27.548 43.272 L 27.548 43.272 Q 24.488 43.272 22.778 42.048 L 22.778 42.048 L 22.778 42.048 Q 21.068 40.824 20.42 38.628 L 20.42 38.628 L 20.42 38.628 Q 19.772 36.432 19.772 33.12 L 19.772 33.12 L 19.772 13.788 L 23.66 13.788 L 23.66 33.3 L 23.66 33.3 Q 23.66 36.612 24.434 38.34 L 24.434 38.34 L 24.434 38.34 Q 25.208 40.068 27.548 40.068 L 27.548 40.068 L 27.548 40.068 Q 29.888 40.068 30.662 38.34 L 30.662 38.34 L 30.662 38.34 Q 31.436 36.612 31.436 33.3 L 31.436 33.3 L 31.436 13.788 L 35.288 13.788 L 35.288 33.12 L 35.288 33.12 Q 35.288 36.432 34.64 38.628 L 34.64 38.628 L 34.64 38.628 Q 33.992 40.824 32.3 42.048 L 32.3 42.048 L 32.3 42.048 Q 30.608 43.272 27.548 43.272 L 27.548 43.272 L 27.548 43.272 Z  M 39.572 42.948 L 39.572 13.788 L 45.908 13.788 L 45.908 13.788 Q 50.624 13.788 52.586 15.948 L 52.586 15.948 L 52.586 15.948 Q 54.548 18.108 54.548 22.68 L 54.548 22.68 L 54.548 33.408 L 54.548 33.408 Q 54.548 38.232 52.622 40.59 L 52.622 40.59 L 52.622 40.59 Q 50.696 42.948 46.232 42.948 L 46.232 42.948 L 39.572 42.948 L 39.572 42.948 Z  M 43.64 40.032 L 45.944 40.032 L 45.944 40.032 Q 48.068 40.032 49.022 39.204 L 49.022 39.204 L 49.022 39.204 Q 49.976 38.376 50.21 36.954 L 50.21 36.954 L 50.21 36.954 Q 50.444 35.532 50.444 32.652 L 50.444 32.652 L 50.444 23.184 L 50.444 23.184 Q 50.444 20.7 50.138 19.386 L 50.138 19.386 L 50.138 19.386 Q 49.832 18.072 48.86 17.442 L 48.86 17.442 L 48.86 17.442 Q 47.888 16.812 45.836 16.812 L 45.836 16.812 L 43.64 16.812 L 43.64 40.032 L 43.64 40.032 Z  M 58.76 42.948 L 58.76 13.788 L 62.756 13.788 L 62.756 42.948 L 58.76 42.948 L 58.76 42.948 Z  M 74.924 43.272 L 74.924 43.272 Q 70.64 43.272 68.786 40.842 L 68.786 40.842 L 68.786 40.842 Q 66.932 38.412 66.932 33.804 L 66.932 33.804 L 66.932 22.752 L 66.932 22.752 Q 66.932 18.216 68.804 15.876 L 68.804 15.876 L 68.804 15.876 Q 70.676 13.536 74.924 13.536 L 74.924 13.536 L 74.924 13.536 Q 79.172 13.536 81.026 15.894 L 81.026 15.894 L 81.026 15.894 Q 82.88 18.252 82.88 22.752 L 82.88 22.752 L 82.88 33.84 L 82.88 33.84 Q 82.88 38.376 81.008 40.824 L 81.008 40.824 L 81.008 40.824 Q 79.136 43.272 74.924 43.272 L 74.924 43.272 L 74.924 43.272 Z  M 74.924 40.068 L 74.924 40.068 Q 77.192 40.068 77.984 38.736 L 77.984 38.736 L 77.984 38.736 Q 78.776 37.404 78.776 34.704 L 78.776 34.704 L 78.776 21.924 L 78.776 21.924 Q 78.776 19.26 77.984 17.982 L 77.984 17.982 L 77.984 17.982 Q 77.192 16.704 74.924 16.704 L 74.924 16.704 L 74.924 16.704 Q 72.62 16.704 71.828 17.982 L 71.828 17.982 L 71.828 17.982 Q 71.036 19.26 71.036 21.924 L 71.036 21.924 L 71.036 34.704 L 71.036 34.704 Q 71.036 37.404 71.828 38.736 L 71.828 38.736 L 71.828 38.736 Q 72.62 40.068 74.924 40.068 L 74.924 40.068 L 74.924 40.068 Z  M 86.876 42.948 L 86.876 13.788 L 94.112 13.788 L 94.112 13.788 Q 97.892 13.788 99.602 15.84 L 99.602 15.84 L 99.602 15.84 Q 101.312 17.892 101.312 21.852 L 101.312 21.852 L 101.312 21.852 Q 101.312 25.416 99.476 27.396 L 99.476 27.396 L 99.476 27.396 Q 97.64 29.376 94.148 29.376 L 94.148 29.376 L 90.944 29.376 L 90.944 42.948 L 86.876 42.948 L 86.876 42.948 Z  M 90.944 26.46 L 92.816 26.46 L 92.816 26.46 Q 94.616 26.46 95.606 26.064 L 95.606 26.064 L 95.606 26.064 Q 96.596 25.668 97.028 24.696 L 97.028 24.696 L 97.028 24.696 Q 97.46 23.724 97.46 21.888 L 97.46 21.888 L 97.46 21.888 Q 97.46 19.656 97.136 18.612 L 97.136 18.612 L 97.136 18.612 Q 96.812 17.568 95.858 17.136 L 95.858 17.136 L 95.858 17.136 Q 94.904 16.704 92.852 16.704 L 92.852 16.704 L 90.944 16.704 L 90.944 26.46 L 90.944 26.46 Z  M 104.156 42.948 L 104.156 13.788 L 108.224 13.788 L 108.224 26.388 L 115.712 26.388 L 115.712 13.788 L 119.78 13.788 L 119.78 42.948 L 115.712 42.948 L 115.712 29.304 L 108.224 29.304 L 108.224 42.948 L 104.156 42.948 L 104.156 42.948 Z  M 124.568 42.948 L 124.568 13.788 L 128.564 13.788 L 128.564 42.948 L 124.568 42.948 L 124.568 42.948 Z  M 133.28 42.948 L 133.28 13.788 L 137.348 13.788 L 137.348 40.032 L 144.8 40.032 L 144.8 42.948 L 133.28 42.948 L 133.28 42.948 Z  M 147.572 42.948 L 147.572 13.788 L 158.876 13.788 L 158.876 16.812 L 151.64 16.812 L 151.64 26.46 L 157.508 26.46 L 157.508 29.34 L 151.64 29.34 L 151.64 40.032 L 158.948 40.032 L 158.948 42.948 L 147.572 42.948 L 147.572 42.948 Z " fill="rgb(0,0,0)"/></g></svg>