<?xml version="1.0" standalone="no"?><!-- Generator: Gravit.io --><svg xmlns="http://www.w3.org/2000/svg" xmlns:xlink="http://www.w3.org/1999/xlink" style="isolation:isolate" viewBox="0 0 18.934 20.448" width="18.934" height="20.448"><defs><clipPath id="_clipPath_H2Q2CQjiFaUm0fXQFQMj1L1LI0XkVn81"><rect width="18.934" height="20.448"/></clipPath></defs><g clip-path="url(#_clipPath_H2Q2CQjiFaUm0fXQFQMj1L1LI0XkVn81)"><g><g><rect x="0" y="0" width="4.023" height="4.023" transform="matrix(1,0,0,1,0,0)" fill="rgb(0,0,0)"/><rect x="7.456" y="0" width="4.023" height="4.023" transform="matrix(1,0,0,1,0,0)" fill="rgb(0,0,0)"/><rect x="14.911" y="0" width="4.023" height="4.023" transform="matrix(1,0,0,1,0,0)" fill="rgb(0,0,0)"/></g><g><rect x="0" y="8.213" width="4.023" height="4.023" transform="matrix(1,0,0,1,0,0)" fill="rgb(0,0,0)"/><rect x="7.456" y="8.213" width="4.023" height="4.023" transform="matrix(1,0,0,1,0,0)" fill="rgb(0,0,0)"/><rect x="14.911" y="8.213" width="4.023" height="4.023" transform="matrix(1,0,0,1,0,0)" fill="rgb(0,0,0)"/></g><g><rect x="0" y="16.425" width="4.023" height="4.023" transform="matrix(1,0,0,1,0,0)" fill="rgb(0,0,0)"/><rect x="7.456" y="16.425" width="4.023" height="4.023" transform="matrix(1,0,0,1,0,0)" fill="rgb(0,0,0)"/><rect x="14.911" y="16.425" width="4.023" height="4.023" transform="matrix(1,0,0,1,0,0)" fill="rgb(0,0,0)"/></g></g></g></svg>