<?xml version="1.0" standalone="no"?><!DOCTYPE svg PUBLIC "-//W3C//DTD SVG 1.1//EN" "http://www.w3.org/Graphics/SVG/1.1/DTD/svg11.dtd"><svg class="icon" height="512" viewBox="0 0 1024 1024" version="1.1" xmlns="http://www.w3.org/2000/svg"><path d="M920.935065 887.494949 862.03146 223.410469C860.972019 210.268692 849.954111 200.306369 836.605473 200.306369L712.44175 200.306369C712.229835 89.872889 622.391256 0 512 0 401.608744 0 311.770165 89.872889 311.55825 200.306369L187.394527 200.306369C174.257804 200.306369 163.23983 210.268692 161.96854 223.410469L103.064935 887.494949 103.064935 889.826543C103.064935 963.802099 171.079547 1024 254.561612 1024L769.438388 1024C852.920453 1024 920.935065 963.802099 920.935065 889.826543L920.935065 887.494949 920.935065 887.494949ZM512 50.871456C594.422691 50.871456 661.377862 117.852226 661.58971 200.306369L362.41029 200.306369C362.622138 117.852226 429.577309 50.871456 512 50.871456L512 50.871456ZM769.438388 972.916563 254.561612 972.916563C199.471875 972.916563 154.552586 936.246724 153.916975 890.674402L210.701698 251.177824 311.55825 251.177824 311.55825 340.414836C311.55825 354.404472 322.999988 365.850531 336.984237 365.850531 350.968553 365.850531 362.41029 354.404472 362.41029 340.414836L362.41029 251.177824 661.58971 251.177824 661.58971 340.414836C661.58971 354.404472 673.031447 365.850531 687.015763 365.850531 701.000012 365.850531 712.44175 354.404472 712.44175 340.414836L712.44175 251.177824 813.298302 251.177824 870.083025 890.886383C869.447414 936.246724 824.528125 972.916563 769.438388 972.916563L769.438388 972.916563Z" /></svg>